<?xml version="1.0" standalone="no"?>
<!DOCTYPE svg PUBLIC "-//W3C//DTD SVG 20010904//EN"
 "http://www.w3.org/TR/2001/REC-SVG-20010904/DTD/svg10.dtd">
<svg version="1.0" xmlns="http://www.w3.org/2000/svg"
 width="826.000000pt" height="532.000000pt" viewBox="0 0 826.000000 532.000000"
 preserveAspectRatio="xMidYMid meet">

<g transform="translate(0.000000,532.000000) scale(0.100000,-0.100000)"
fill="#000000" stroke="none">
<path d="M0 2660 l0 -2660 1768 1 c1494 1 1756 3 1694 14 -234 42 -452 160
-572 307 -68 85 -125 203 -158 329 -25 97 -27 119 -27 309 0 162 4 220 18 278
66 273 195 443 430 567 162 85 355 126 601 126 555 -1 890 -214 1001 -637 24
-89 44 -280 45 -416 l0 -38 -700 0 -700 0 0 -33 c0 -110 54 -245 118 -294 69
-52 137 -73 244 -73 123 0 186 14 246 53 55 38 102 119 102 179 l0 38 343 0
343 0 -8 -84 c-13 -151 -60 -258 -162 -365 -70 -73 -152 -132 -240 -171 -58
-26 -227 -74 -291 -83 -16 -2 914 -5 2068 -6 l2097 -1 0 2660 c0 2653 0 2660
-20 2660 -19 0 -20 -7 -20 -200 l0 -200 -355 0 -355 0 0 200 0 200 -3755 0
-3755 0 0 -2660z m1452 2587 c340 -57 573 -180 733 -387 90 -117 166 -304 201
-495 26 -141 26 -479 0 -620 -98 -536 -420 -822 -1001 -890 -102 -12 -258 -15
-717 -15 l-588 0 0 1216 0 1216 638 -5 c524 -3 654 -7 734 -20z m2546 -523
c367 -53 582 -196 648 -430 14 -50 18 -125 21 -494 3 -282 8 -445 15 -463 18
-47 43 -57 140 -57 l88 0 0 -204 0 -205 -52 -19 c-108 -39 -160 -47 -323 -47
-137 1 -172 4 -242 24 -98 28 -194 88 -242 152 l-33 46 -67 -45 c-90 -61 -217
-118 -331 -149 -87 -25 -111 -27 -290 -27 -167 1 -206 4 -271 22 -199 54 -322
164 -364 327 -17 68 -20 245 -5 326 17 87 72 193 132 250 103 99 225 157 408
195 157 32 268 43 518 51 l212 6 0 73 c0 86 -10 117 -53 163 -51 53 -108 74
-207 75 -158 2 -259 -49 -276 -139 l-6 -35 -344 0 -344 0 0 58 c0 321 313 535
825 562 175 9 300 5 443 -16z m2620 1 c259 -61 405 -242 442 -545 6 -49 10
-347 10 -712 l0 -628 -355 0 -355 0 0 598 c0 677 2 660 -74 730 -108 100 -313
66 -396 -65 -17 -26 -35 -63 -40 -83 -6 -21 -10 -264 -10 -607 l0 -573 -355 0
-355 0 0 930 0 930 289 0 c277 0 289 -1 294 -19 2 -11 13 -73 23 -138 l18
-118 55 59 c116 122 314 230 456 249 81 11 294 6 353 -8z m1602 -955 l0 -930
-355 0 -355 0 0 930 0 930 355 0 355 0 0 -930z m-6970 -1320 c379 -20 641
-112 837 -294 201 -186 307 -471 320 -861 13 -401 -84 -717 -286 -928 -172
-180 -395 -281 -714 -322 -94 -12 -239 -15 -723 -15 l-604 0 0 1215 0 1215
498 0 c273 0 576 -5 672 -10z m4506 -1137 c120 -408 174 -578 184 -578 10 0
64 170 184 578 l170 577 343 0 c189 0 343 -4 343 -9 0 -4 -143 -384 -319 -842
-175 -459 -333 -873 -351 -921 l-33 -88 -371 0 -371 0 -27 73 c-25 69 -633
1671 -663 1750 l-15 37 378 0 378 0 170 -577z"/>
<path d="M870 4050 l0 -633 188 6 c118 3 206 11 238 20 120 34 214 110 260
212 47 102 56 178 52 435 -4 206 -7 243 -26 300 -42 128 -122 215 -239 261
-52 21 -79 23 -265 27 l-208 4 0 -632z"/>
<path d="M3739 3640 c-192 -23 -333 -96 -355 -186 -10 -40 2 -114 23 -142 39
-52 87 -67 213 -67 106 0 119 2 174 29 73 36 121 78 147 127 15 31 19 59 19
144 l0 105 -77 -1 c-43 -1 -108 -5 -144 -9z"/>
<path d="M870 1240 l0 -630 154 0 c248 0 374 36 463 133 53 57 79 109 104 204
16 64 19 111 19 292 0 147 -5 237 -14 283 -39 179 -141 288 -313 333 -40 11
-110 15 -235 15 l-178 0 0 -630z"/>
<path d="M3619 1461 c-115 -37 -181 -118 -213 -263 l-6 -28 345 0 345 0 -6 48
c-9 79 -61 171 -117 209 -27 18 -65 37 -85 43 -59 16 -200 11 -263 -9z"/>
</g>
</svg>
